<?xml version="1.0" encoding="UTF-8" standalone="no"?>
<svg
   xmlns:dc="http://purl.org/dc/elements/1.1/"
   xmlns:cc="http://creativecommons.org/ns#"
   xmlns:rdf="http://www.w3.org/1999/02/22-rdf-syntax-ns#"
   xmlns:svg="http://www.w3.org/2000/svg"
   xmlns="http://www.w3.org/2000/svg"
   xmlns:sodipodi="http://sodipodi.sourceforge.net/DTD/sodipodi-0.dtd"
   xmlns:inkscape="http://www.inkscape.org/namespaces/inkscape"
   viewBox="0 0 95 95"
   x="0px"
   y="0px"
   version="1.1"
   id="svg48"
   sodipodi:docname="icon.svg"
   width="95"
   height="95"
   inkscape:version="0.92.2 (5c3e80d, 2017-08-06)"
   inkscape:export-filename="/home/derek/git/fake-news-extension/images/icon128.png"
   inkscape:export-xdpi="129.8434"
   inkscape:export-ydpi="129.8434">
  <metadata
     id="metadata54">
    <rdf:RDF>
      <cc:Work
         rdf:about="">
        <dc:format>image/svg+xml</dc:format>
        <dc:type
           rdf:resource="http://purl.org/dc/dcmitype/StillImage" />
        <dc:title></dc:title>
      </cc:Work>
    </rdf:RDF>
  </metadata>
  <defs
     id="defs52" />
  <sodipodi:namedview
     pagecolor="#ffffff"
     bordercolor="#666666"
     borderopacity="1"
     objecttolerance="10"
     gridtolerance="10"
     guidetolerance="10"
     inkscape:pageopacity="0"
     inkscape:pageshadow="2"
     inkscape:window-width="1920"
     inkscape:window-height="1021"
     id="namedview50"
     showgrid="false"
     fit-margin-top="0"
     fit-margin-left="0"
     fit-margin-right="0"
     fit-margin-bottom="0"
     inkscape:snap-global="false"
     inkscape:zoom="5.4851094"
     inkscape:cx="72.394274"
     inkscape:cy="43.386035"
     inkscape:window-x="0"
     inkscape:window-y="0"
     inkscape:window-maximized="1"
     inkscape:current-layer="g46" />
  <g
     id="g46"
     style="fill:#000000;fill-rule:evenodd"
     transform="translate(-3.0002159,-2.6375043)">
    <path
       d="m 93.313909,93.109528 -3.059432,-3.025056 -3.060511,3.025056 -3.060512,-3.025056 -3.059431,3.025056 -3.060512,-3.025056 -3.060511,3.025056 -3.059432,-3.025056 -3.060511,3.025056 -3.059432,-3.025056 -3.060511,3.025056 -3.060512,-3.025056 -3.060511,3.025056 -1.441193,-1.425 0.0011,-34.578933 h 2.357727 V 54.970764 H 55.151977 V 34.858517 c 0,-0.13236 -0.0367,-0.249775 -0.05614,-0.373596 -0.0475,-4.910112 -1.020171,-9.548033 -2.697784,-13.687472 h 1.318125 v -2.134831 h -2.27028 C 48.835557,13.296719 44.98158,8.934191 40.356807,6.2026742 h 25.415739 c 9.906988,0 18.664261,4.9410678 23.893579,12.4599438 h -0.324943 v 2.134831 h 1.671136 c 2.378239,4.157585 3.742784,8.953484 3.742784,14.061068 v 20.112247 h -1.620398 v 2.134831 h 1.620398 V 91.684528 Z M 40.241295,63.562393 c 4.947557,-2.888427 9.044432,-7.613876 11.672046,-13.466517 V 63.562393 Z M 6.1416932,34.858517 c 0,-15.827641 10.2772728,-28.7038766 22.9101138,-28.7038766 12.631761,0 22.910113,12.8762356 22.910113,28.7038766 0,15.826573 -10.278352,28.703876 -22.910113,28.703876 -12.632841,0 -22.9101138,-12.877303 -22.9101138,-28.703876 z M 65.772546,3.000427 H 29.051807 v 0.046966 0 c -14.365511,0 -26.0515911,14.270281 -26.0515911,31.811124 0,17.539775 11.6860801,31.810056 26.0515911,31.810056 h 0.01187 22.849659 l -0.0011,26.341685 4.67983,4.627248 3.060511,-3.025057 3.060512,3.025057 3.060511,-3.025057 3.059432,3.025057 3.060511,-3.025057 3.059432,3.025057 3.060511,-3.025057 3.060512,3.025057 3.059431,-3.025057 3.060512,3.025057 3.060511,-3.025057 3.059432,3.025057 4.67983,-4.62618 V 34.858517 c 0,-17.566461 -14.454035,-31.85809 -32.221193,-31.85809 z"
       id="path2"
       inkscape:connector-curvature="0" />
    <path
       d="m 24.502386,34.858197 c 0,-3.314326 2.041421,-6.010618 4.549205,-6.010618 2.508863,0 4.549204,2.696292 4.549204,6.010618 0,3.314325 -2.040341,6.010618 -4.549204,6.010618 -2.507784,0 -4.549205,-2.696293 -4.549205,-6.010618 m 12.239887,0 c 0,-5.027528 -3.449148,-9.117866 -7.690682,-9.117866 -4.240455,0 -7.690682,4.090338 -7.690682,9.117866 0,5.027528 3.450227,9.117865 7.690682,9.117865 4.241534,0 7.690682,-4.090337 7.690682,-9.117865"
       id="path4"
       inkscape:connector-curvature="0" />
    <polygon
       points="63.987,54.971 60.748,54.971 60.748,57.106 63.987,57.106 "
       id="polygon6" />
    <polygon
       points="70.464,54.971 67.225,54.971 67.225,57.106 70.464,57.106 "
       id="polygon8" />
    <polygon
       points="89.896,54.971 86.657,54.971 86.657,57.106 89.896,57.106 "
       id="polygon10" />
    <polygon
       points="83.419,54.971 80.18,54.971 80.18,57.106 83.419,57.106 "
       id="polygon12" />
    <polygon
       points="76.941,54.971 73.703,54.971 73.703,57.106 76.941,57.106 "
       id="polygon14" />
    <polygon
       points="66.671,18.663 63.432,18.663 63.432,20.798 66.671,20.798 "
       id="polygon16" />
    <polygon
       points="86.102,18.663 82.864,18.663 82.864,20.798 86.102,20.798 "
       id="polygon18" />
    <polygon
       points="79.625,18.663 76.386,18.663 76.386,20.798 79.625,20.798 "
       id="polygon20" />
    <polygon
       points="60.193,18.663 56.955,18.663 56.955,20.798 60.193,20.798 "
       id="polygon22" />
    <polygon
       points="73.148,18.663 69.909,18.663 69.909,20.798 73.148,20.798 "
       id="polygon24" />
    <polygon
       points="74.953,25.781 59.652,25.781 59.652,40.91 74.953,40.91 "
       id="polygon26" />
    <polygon
       points="90.254,25.782 78.013,25.782 78.013,28.808 90.254,28.808 "
       id="polygon28" />
    <polygon
       points="90.254,31.834 78.013,31.834 78.013,34.859 90.254,34.859 "
       id="polygon30" />
    <polygon
       points="90.254,37.885 78.013,37.885 78.013,40.91 90.254,40.91 "
       id="polygon32" />
    <polygon
       points="90.254,43.936 59.652,43.936 59.652,49.987 90.254,49.987 "
       id="polygon34" />
    <polygon
       points="90.253,62.091 74.953,62.091 74.953,77.219 90.253,77.219 "
       id="polygon36" />
    <polygon
       points="71.893,62.091 59.652,62.091 59.652,65.116 71.893,65.116 "
       id="polygon38" />
    <polygon
       points="71.893,68.142 59.652,68.142 59.652,71.167 71.893,71.167 "
       id="polygon40" />
    <polygon
       points="71.893,74.194 59.652,74.194 59.652,77.219 71.893,77.219 "
       id="polygon42" />
    <polygon
       points="90.254,80.245 59.652,80.245 59.652,86.296 90.254,86.296 "
       id="polygon44" />
    <path
       style="fill:#ffffff;fill-opacity:1;fill-rule:evenodd;stroke:#000000;stroke-width:0;stroke-miterlimit:4;stroke-dasharray:none;stroke-opacity:1"
       d="M 52.85334,89.648036 52.175898,88.954272 V 71.779076 54.603878 h 1.185027 1.185026 v -1.185026 -1.185027 h -1.185026 -1.185027 v -10.91939 c 0,-11.155827 -0.0897,-13.154786 -0.74223,-16.540219 -0.287162,-1.489848 -1.240999,-4.865577 -1.74848,-6.18805 -0.07427,-0.193544 0.04786,-0.26233 0.465775,-0.26233 h 0.566441 V 17.138809 15.953783 H 49.644072 48.57074 L 47.614818,14.267399 C 45.499816,10.536232 42.817911,7.4133976 39.73258,5.0892502 l -1.809274,-1.362907 14.464345,0.051853 c 14.439147,0.051763 14.46767,0.052602 16.373226,0.4813656 6.538456,1.4712008 12.651654,5.2115383 16.492517,10.0908862 l 1.074923,1.365556 -0.04229,1.303916 -0.04229,1.303916 h 0.895275 0.895274 l 0.923851,1.959851 c 1.50514,3.193001 2.238267,5.916196 2.589033,9.616946 0.105619,1.114326 0.190147,6.521702 0.190231,12.169311 l 1.53e-4,10.163881 h -0.820403 -0.820403 v 1.185027 1.185026 h 0.820403 0.820403 v 17.175198 17.175196 l -0.673202,0.689423 -0.673205,0.689423 -1.492262,-1.45656 c -0.820744,-0.801108 -1.56574,-1.456561 -1.655547,-1.456561 -0.08981,0 -0.815866,0.656428 -1.613461,1.458729 l -1.450174,1.458728 -1.508116,-1.500282 -1.508115,-1.50028 -1.515137,1.507264 -1.515137,1.507266 -1.597171,-1.494325 -1.59717,-1.494326 -1.493656,1.485897 -1.493657,1.485896 -1.486335,-1.486335 -1.486337,-1.486337 -1.610372,1.483274 -1.610373,1.483274 -1.504072,-1.495775 -1.504072,-1.495773 -1.508116,1.50028 -1.508116,1.500282 -1.450173,-1.458728 c -0.797596,-0.802301 -1.532425,-1.458729 -1.632954,-1.458729 -0.10053,0 -0.84362,0.657405 -1.651311,1.4609 l -1.46853,1.460903 z m 34.50873,-8.973575 v -3.0993 H 71.956725 56.551381 v 3.0993 3.0993 H 71.956725 87.36207 Z M 68.948581,73.108523 v -1.54965 h -6.1986 -6.1986 v 1.54965 1.54965 h 6.1986 6.1986 z M 87.36207,67.001078 v -7.657094 h -7.74825 -7.748251 v 7.657094 7.657095 h 7.748251 7.74825 z m -18.413489,0 v -1.640805 h -6.1986 -6.1986 v 1.640805 1.640806 h 6.1986 6.1986 z m 0,-6.016288 v -1.640806 h -6.1986 -6.1986 v 1.640806 1.640806 h 6.1986 6.1986 z m -7.839406,-7.565938 v -1.185027 h -1.731962 -1.731962 v 1.185027 1.185026 h 1.731962 1.731962 z m 6.380912,0 v -1.185027 h -1.640806 -1.640806 v 1.185027 1.185026 h 1.640806 1.640806 z m 6.563224,0 v -1.185027 h -1.731962 -1.731962 v 1.185027 1.185026 h 1.731962 1.731962 z m 6.380912,0 v -1.185027 h -1.640806 -1.640806 v 1.185027 1.185026 h 1.640806 1.640806 z m 6.563223,0 v -1.185027 h -1.731961 -1.731962 v 1.185027 1.185026 h 1.731962 1.731961 z m 0.364624,-9.024433 v -3.0993 H 71.956725 56.551381 v 3.0993 3.0993 H 71.956725 87.36207 Z M 72.047881,30.721036 v -7.657094 h -7.74825 -7.74825 v 7.657094 7.657094 h 7.74825 7.74825 z m 15.314189,6.016289 v -1.640806 h -6.1986 -6.1986 v 1.640806 1.640805 h 6.1986 6.1986 z m 0,-6.016289 V 29.08023 h -6.1986 -6.1986 v 1.640806 1.640806 h 6.1986 6.1986 z m -0.03848,-6.061866 0.05268,-1.595228 h -6.2057 -6.205697 v 1.519264 c 0,0.835597 0.05578,1.575046 0.123957,1.643223 0.06818,0.06818 2.837037,0.102361 6.153022,0.07596 l 6.029065,-0.048 z M 57.280628,17.138809 v -1.185026 h -1.731962 -1.731962 v 1.063485 c 0,0.584917 0.05469,1.118179 0.121541,1.185026 0.06685,0.06685 0.846231,0.121542 1.731962,0.121542 h 1.610421 z m 6.472068,0 v -1.09387 l -1.686384,-0.05242 -1.686384,-0.05242 v 1.198709 1.19871 l 1.686384,-0.05242 1.686384,-0.05242 z m 6.472067,0 V 15.953783 H 68.492802 66.76084 v 1.063485 c 0,0.584917 0.05469,1.118179 0.121542,1.185026 0.06685,0.06685 0.846229,0.121542 1.731961,0.121542 h 1.61042 z m 6.526346,-0.04558 0.05428,-1.139448 h -1.74066 -1.740661 v 1.191868 1.191868 l 1.686383,-0.05242 1.686384,-0.05242 z m 6.41779,0.04558 v -1.185026 h -1.731962 -1.731961 v 1.063485 c 0,0.584917 0.05469,1.118179 0.121541,1.185026 0.06685,0.06685 0.84623,0.121542 1.731962,0.121542 h 1.61042 z"
       id="path878"
       inkscape:connector-curvature="0"
       transform="translate(3.0002159,2.6375043)" />
    <path
       style="fill:#ffffff;fill-opacity:1;fill-rule:evenodd;stroke:#000000;stroke-width:0;stroke-miterlimit:4;stroke-dasharray:none;stroke-opacity:1"
       d="M 23.461794,60.671757 C 18.991353,60.049833 14.139593,57.277033 10.760434,53.412883 7.0022482,49.115304 4.5008206,43.434015 3.5788543,37.101948 3.14934,34.152041 3.2872419,28.359521 3.8542242,25.535129 7.2871308,8.4342894 21.890187,-0.89544423 34.751024,5.7954986 46.405902,11.859032 52.004337,28.919604 47.064903,43.32059 c -3.185009,9.285935 -9.96644,15.842647 -17.798169,17.208386 -1.440852,0.251264 -4.486654,0.326179 -5.80494,0.142781 z M 27.21988,41.292568 c 2.941236,-0.553675 5.409274,-3.099092 6.265796,-6.462243 0.358097,-1.406076 0.353556,-3.851347 -0.0098,-5.253421 -0.670264,-2.586634 -2.497385,-4.949958 -4.582051,-5.926737 -0.917003,-0.429663 -1.285415,-0.495069 -2.788557,-0.495069 -1.559909,0 -1.850802,0.05631 -2.928246,0.566874 -2.870766,1.360349 -4.904829,4.86775 -4.904829,8.457558 0,3.501606 1.86569,6.94013 4.538599,8.364776 1.610008,0.858125 2.775077,1.05585 4.409041,0.748262 z"
       id="path880"
       inkscape:connector-curvature="0"
       transform="translate(3.0002159,2.6375043)" />
    <path
       style="fill:#ffffff;fill-opacity:1;fill-rule:evenodd;stroke:#000000;stroke-width:0;stroke-miterlimit:4;stroke-dasharray:none;stroke-opacity:1"
       d="m 52.843288,89.637743 -0.66739,-0.683471 V 71.779076 54.603878 h 1.185027 1.185026 V 53.418852 52.233825 H 53.373622 52.201293 L 52.121123,40.15567 c -0.08612,-12.974356 -0.102608,-13.228742 -1.115472,-17.208543 -0.2516,-0.988602 -0.665504,-2.406621 -0.919786,-3.151152 -0.254283,-0.744531 -0.462332,-1.380343 -0.462332,-1.412916 0,-0.03257 0.246121,-0.05922 0.546936,-0.05922 h 0.546935 V 17.138812 15.953786 H 49.652489 48.587574 L 47.487544,14.08509 C 45.202439,10.203228 42.474891,7.0829241 39.416216,4.8515215 l -1.547509,-1.1289577 14.673956,0.06288 14.673956,0.06288 1.914274,0.4756508 c 5.67286,1.4095693 10.172603,3.9163849 14.145548,7.8805164 2.767103,2.760962 3.060858,3.234558 3.008454,4.850267 l -0.04116,1.269078 h 0.895275 0.895274 l 0.919842,1.959851 c 1.517949,3.234204 2.289688,6.066957 2.595151,9.52579 0.101836,1.153122 0.185858,6.670332 0.186717,12.260467 l 0.0016,10.163881 h -0.820403 -0.820403 v 1.185027 1.185026 h 0.820403 0.820403 v 17.175198 17.175196 l -0.665135,0.681161 -0.665133,0.681161 -1.562294,-1.4483 c -0.859261,-0.796564 -1.607889,-1.448297 -1.663617,-1.448297 -0.05573,0 -0.753903,0.656428 -1.551498,1.458729 l -1.450174,1.458728 -1.508116,-1.500282 -1.508115,-1.50028 -1.54965,1.541599 -1.54965,1.541599 -1.54965,-1.541599 -1.54965,-1.541599 -1.506663,1.498836 -1.506665,1.498836 -1.49548,-1.49548 -1.495479,-1.49548 -1.565703,1.528245 -1.565703,1.528243 -1.539597,-1.531601 -1.539599,-1.531599 -1.508424,1.500588 -1.508426,1.500588 -1.271829,-1.289617 c -0.699506,-0.709289 -1.40997,-1.365836 -1.578809,-1.458992 -0.244117,-0.134692 -0.620773,0.12766 -1.839396,1.281189 l -1.53242,1.450563 z M 87.36207,80.674461 v -3.0993 H 71.956725 56.551381 v 3.0993 3.0993 H 71.956725 87.36207 Z M 68.948581,73.108523 v -1.54965 h -6.1986 -6.1986 v 1.54965 1.54965 h 6.1986 6.1986 z M 87.36207,67.001078 v -7.657094 h -7.74825 -7.748251 v 7.657094 7.657095 h 7.748251 7.74825 z m -18.413489,0 v -1.640805 h -6.1986 -6.1986 v 1.640805 1.640806 h 6.1986 6.1986 z m 0,-6.016288 v -1.640806 h -6.1986 -6.1986 v 1.640806 1.640806 h 6.1986 6.1986 z m -7.839406,-7.565938 v -1.185027 h -1.731962 -1.731962 v 1.185027 1.185026 h 1.731962 1.731962 z m 6.380912,0 v -1.185027 h -1.640806 -1.640806 v 1.185027 1.185026 h 1.640806 1.640806 z m 6.563224,0 v -1.185027 h -1.731962 -1.731962 v 1.185027 1.185026 h 1.731962 1.731962 z m 6.380912,0 v -1.185027 h -1.640806 -1.640806 v 1.185027 1.185026 h 1.640806 1.640806 z m 6.563223,0 v -1.185027 h -1.731961 -1.731962 v 1.185027 1.185026 h 1.731962 1.731961 z m 0.364624,-9.024433 v -3.0993 H 71.956725 56.551381 v 3.0993 3.0993 H 71.956725 87.36207 Z M 72.047881,30.721036 v -7.657094 h -7.74825 -7.74825 v 7.657094 7.657094 h 7.74825 7.74825 z m 15.314189,6.016289 v -1.640806 h -6.1986 -6.1986 v 1.640806 1.640805 h 6.1986 6.1986 z m 0,-6.016289 V 29.08023 h -6.1986 -6.1986 v 1.640806 1.640806 h 6.1986 6.1986 z m 0,-6.107444 v -1.54965 h -6.1986 -6.1986 v 1.54965 1.54965 h 6.1986 6.1986 z M 57.280628,17.138809 v -1.185026 h -1.731962 -1.731962 v 1.063485 c 0,0.584917 0.05469,1.118179 0.121541,1.185026 0.06685,0.06685 0.846231,0.121542 1.731962,0.121542 h 1.610421 z m 6.380912,0 v -1.185026 h -1.640806 -1.640806 v 1.185026 1.185027 h 1.640806 1.640806 z m 6.563223,0 V 15.953783 H 68.492802 66.76084 v 1.063485 c 0,0.584917 0.05469,1.118179 0.121542,1.185026 0.06685,0.06685 0.846229,0.121542 1.731961,0.121542 h 1.61042 z m 6.526346,-0.04558 0.05428,-1.139448 h -1.74066 -1.740661 v 1.191868 1.191868 l 1.686383,-0.05242 1.686384,-0.05242 z m 6.41779,0.04558 v -1.185026 h -1.731962 -1.731961 v 1.063485 c 0,0.584917 0.05469,1.118179 0.121541,1.185026 0.06685,0.06685 0.84623,0.121542 1.731962,0.121542 h 1.61042 z"
       id="path882"
       inkscape:connector-curvature="0"
       transform="translate(3.0002159,2.6375043)" />
    <path
       style="fill:#ffffff;fill-opacity:1;fill-rule:evenodd;stroke:#000000;stroke-width:0;stroke-miterlimit:4;stroke-dasharray:none;stroke-opacity:1"
       d="M 52.852125,89.646793 52.175898,88.954272 V 71.779076 54.603878 h 1.185027 1.185026 V 53.418852 52.233825 H 53.360925 52.175898 L 52.17526,42.343411 C 52.17455,31.597434 52.01219,27.751803 51.438352,24.889329 51.123704,23.319774 50.1336,19.746226 49.707682,18.642881 49.606613,18.38106 49.686119,18.323836 50.150963,18.323836 h 0.566441 V 17.138809 15.953783 H 49.643426 48.569448 L 47.47177,14.072075 C 45.303988,10.355934 42.47516,7.1201245 39.419977,4.8618763 L 37.876229,3.7208106 52.63758,3.7850701 c 14.558547,0.063377 14.782641,0.069821 16.311001,0.4690869 6.038459,1.5774741 10.268072,3.9133721 14.238628,7.863598 2.856767,2.842142 3.150449,3.310203 3.097686,4.937003 l -0.04116,1.269078 h 0.915125 0.915123 l 0.758692,1.595228 c 0.996412,2.095059 2.067822,5.361964 2.466372,7.52036 0.277316,1.50185 0.32958,3.264028 0.393361,13.263182 l 0.07356,11.531219 H 90.931359 90.09675 v 1.185027 1.185026 h 0.820403 0.820403 V 71.79534 88.986802 l -0.683669,0.659845 -0.683669,0.659843 -1.545508,-1.427485 c -1.142761,-1.055492 -1.617853,-1.387444 -1.823118,-1.273829 -0.152686,0.08451 -0.849933,0.733986 -1.54944,1.443275 l -1.271829,1.289617 -1.508425,-1.500588 -1.508424,-1.500588 -1.54965,1.541599 -1.54965,1.541599 -1.54965,-1.541599 -1.54965,-1.541599 -1.506663,1.498836 -1.506665,1.498836 -1.500154,-1.500154 -1.500156,-1.500156 -1.550976,1.542919 -1.550975,1.542917 -1.54965,-1.541599 -1.54965,-1.541599 -1.504072,1.490295 -1.504072,1.490294 -1.520238,-1.469958 -1.520236,-1.469957 -0.758661,0.703304 c -0.417262,0.386816 -1.13119,1.053209 -1.586505,1.480871 l -0.827846,0.77757 z M 87.36207,80.674461 v -3.0993 H 71.956725 56.551381 v 3.0993 3.0993 H 71.956725 87.36207 Z M 68.948581,73.108523 v -1.54965 h -6.1986 -6.1986 v 1.54965 1.54965 h 6.1986 6.1986 z M 87.36207,67.001078 v -7.657094 h -7.74825 -7.748251 v 7.657094 7.657095 h 7.748251 7.74825 z m -18.413489,0 v -1.640805 h -6.1986 -6.1986 v 1.640805 1.640806 h 6.1986 6.1986 z m 0,-6.016288 v -1.640806 h -6.1986 -6.1986 v 1.640806 1.640806 h 6.1986 6.1986 z m -7.839406,-7.565938 v -1.185027 h -1.731962 -1.731962 v 1.185027 1.185026 h 1.731962 1.731962 z m 6.380912,0 v -1.185027 h -1.640806 -1.640806 v 1.185027 1.185026 h 1.640806 1.640806 z m 6.563224,0 v -1.185027 h -1.731962 -1.731962 v 1.185027 1.185026 h 1.731962 1.731962 z m 6.380912,0 v -1.185027 h -1.640806 -1.640806 v 1.185027 1.185026 h 1.640806 1.640806 z m 6.563223,0 v -1.185027 h -1.731961 -1.731962 v 1.185027 1.185026 h 1.731962 1.731961 z m 0.364624,-9.024433 v -3.0993 H 71.956725 56.551381 v 3.0993 3.0993 H 71.956725 87.36207 Z M 72.047881,30.721036 v -7.657094 h -7.74825 -7.74825 v 7.657094 7.657094 h 7.74825 7.74825 z m 15.314189,6.016289 v -1.640806 h -6.1986 -6.1986 v 1.640806 1.640805 h 6.1986 6.1986 z m 0,-6.016289 V 29.08023 h -6.1986 -6.1986 v 1.640806 1.640806 h 6.1986 6.1986 z m 0,-6.107444 v -1.54965 h -6.1986 -6.1986 v 1.54965 1.54965 h 6.1986 6.1986 z M 57.280628,17.138809 v -1.185026 h -1.731962 -1.731962 v 1.078678 c 0,0.692358 0.08162,1.111611 0.22789,1.170633 0.125339,0.05058 0.904722,0.09843 1.731962,0.106349 l 1.504072,0.01439 z m 6.380912,0 v -1.185026 h -1.640806 -1.640806 v 1.185026 1.185027 h 1.640806 1.640806 z m 6.563223,0 V 15.953783 H 68.492802 66.76084 v 1.078678 c 0,0.692358 0.08162,1.111611 0.22789,1.170633 0.125339,0.05058 0.904722,0.09843 1.731961,0.106349 l 1.504072,0.01439 z m 6.210586,0.9963 c 0.282601,-0.151243 0.352638,-0.386601 0.352638,-1.185026 v -0.9963 h -1.731962 -1.731961 v 1.185026 1.185027 h 1.379323 c 0.758628,0 1.538011,-0.08493 1.731962,-0.188727 z m 6.73355,-0.9963 v -1.185026 h -1.731962 -1.731961 v 1.078678 c 0,0.692358 0.08162,1.111611 0.227889,1.170633 0.12534,0.05058 0.904722,0.09843 1.731962,0.106349 l 1.504072,0.01439 z"
       id="path884"
       inkscape:connector-curvature="0"
       transform="translate(3.0002159,2.6375043)" />
    <path
       style="fill:#ffffff;fill-opacity:1;fill-rule:evenodd;stroke:#000000;stroke-width:0;stroke-miterlimit:4;stroke-dasharray:none;stroke-opacity:1"
       d="m 37.928233,60.651744 c 0.09526,-0.0829 0.747479,-0.552137 1.449379,-1.04274 2.981654,-2.084067 6.029546,-5.569772 8.207127,-9.386037 l 1.181929,-2.07136 v 6.325436 6.325435 h -5.505815 c -3.028199,0 -5.427878,-0.06783 -5.33262,-0.150734 z"
       id="path886"
       inkscape:connector-curvature="0"
       transform="translate(3.0002159,2.6375043)" />
    <path
       style="fill:#ffffff;fill-opacity:1;fill-rule:evenodd;stroke:#000000;stroke-width:0;stroke-miterlimit:4;stroke-dasharray:none;stroke-opacity:1"
       d="m 25.022215,37.944647 c -2.006856,-0.740517 -3.190828,-2.572964 -3.372205,-5.2192 -0.350736,-5.117132 4.146562,-8.29562 7.179444,-5.074109 0.730536,0.775972 1.24178,1.808868 1.501263,3.033094 0.276131,1.302766 0.257827,2.124789 -0.07608,3.416646 -0.733678,2.838572 -3.148593,4.61249 -5.232426,3.843569 z"
       id="path888"
       inkscape:connector-curvature="0"
       transform="translate(3.0002159,2.6375043)" />
  </g>
</svg>
